<svg width="20" height="22" viewBox="0 0 20 22" fill="none" xmlns="http://www.w3.org/2000/svg">
<path d="M8 0C12.4183 0 16 3.58172 16 8C16 9.0063 15.8142 9.9692 15.475 10.8563L14.6378 10.2284C14.8727 9.5284 15 8.77907 15 8C15 4.13401 11.866 1 8 1C4.13401 1 1 4.13401 1 8C1 9.217 1.31054 10.3878 1.89352 11.4249C1.94046 11.5084 1.9621 11.603 1.95692 11.6973L1.94274 11.7912L1.187 14.812L4.21104 14.0583C4.27294 14.0429 4.33662 14.0396 4.39873 14.0479L4.4903 14.0691L4.57701 14.1075C5.61362 14.6898 6.7837 15 8 15C8.3395 15 8.6734 14.9758 9 14.9291V15.9381C8.6724 15.979 8.3387 16 8 16C6.72679 16 5.49591 15.7018 4.38669 15.1393L4.266 15.075L0.62109 15.9851C0.31127 16.0625 0.0262201 15.8369 0.00131011 15.5438L0.00114012 15.4624L0.01493 15.3787L0.925 11.735L0.86169 11.6153C0.4066 10.7186 0.12433 9.7422 0.0327499 8.72826L0.00738001 8.34634L0 8C0 3.58172 3.58172 0 8 0ZM19.6 15.2C20.3688 15.7766 19.961 17 19 17H14.6C14.2307 17 13.8914 17.2035 13.7176 17.5294L11.8824 20.9706C11.3925 21.8891 10 21.541 10 20.5V10C10 9.1759 10.9408 8.70556 11.6 9.2L19.6 15.2Z" fill="#4B25B0"/>
</svg>
